<svg id="graphing_calculator_svg__Layer_1" xmlns="http://www.w3.org/2000/svg" viewBox="0 0 24 24" data-reactid="228"><defs data-reactid="229"><style data-reactid="230"><!-- react-text: 231 -->.graphing_calculator_svg__cls-2<!-- /react-text --><!-- react-text: 232 -->{<!-- /react-text --><!-- react-text: 233 -->fill:#99f<!-- /react-text --><!-- react-text: 234 -->}<!-- /react-text --><!-- react-text: 235 -->.graphing_calculator_svg__cls-3<!-- /react-text --><!-- react-text: 236 -->{<!-- /react-text --><!-- react-text: 237 -->fill:#333<!-- /react-text --><!-- react-text: 238 -->}<!-- /react-text --></style></defs><title data-reactid="239">GeoGebra Graphing</title><path d="M2.5 21.5C4.13 10.64 7.89.56 12 12s7.76 1.36 9.51-9.5" fill="none" stroke="#666" stroke-miterlimit="10" stroke-width="1.3" data-reactid="240"></path><circle class="graphing_calculator_svg__cls-2" cx="8.5" cy="6.5" r="2.5" data-reactid="241"></circle><circle class="graphing_calculator_svg__cls-2" cx="15.5" cy="17.5" r="2.5" data-reactid="242"></circle><path class="graphing_calculator_svg__cls-3" d="M15.5 15a2.5 2.5 0 1 0 2.5 2.5 2.5 2.5 0 0 0-2.5-2.5zm0 4.5a2 2 0 1 1 2-2 2 2 0 0 1-2 2zM8.5 4A2.5 2.5 0 1 0 11 6.5 2.5 2.5 0 0 0 8.5 4zm0 4.5a2 2 0 1 1 2-2 2 2 0 0 1-2 2z" data-reactid="243"></path></svg>